<svg width="127" height="22" viewBox="0 0 127 22" fill="none" xmlns="http://www.w3.org/2000/svg">
<path d="M79 0H127V13C127 17.9706 122.971 22 118 22H79V0Z" fill="#AB9DFF"/>
<path d="M112.832 16.7266V5.27344H116.543C117.949 5.27344 118.866 5.33073 119.293 5.44531C119.949 5.61719 120.499 5.99219 120.941 6.57031C121.384 7.14323 121.605 7.88542 121.605 8.79688C121.605 9.5 121.478 10.0911 121.223 10.5703C120.967 11.0495 120.642 11.4271 120.246 11.7031C119.855 11.974 119.457 12.1536 119.051 12.2422C118.499 12.3516 117.699 12.4062 116.652 12.4062H115.145V16.7266H112.832ZM115.145 7.21094V10.4609H116.41C117.322 10.4609 117.931 10.401 118.238 10.2812C118.546 10.1615 118.785 9.97396 118.957 9.71875C119.134 9.46354 119.223 9.16667 119.223 8.82812C119.223 8.41146 119.1 8.06771 118.855 7.79688C118.611 7.52604 118.301 7.35677 117.926 7.28906C117.65 7.23698 117.095 7.21094 116.262 7.21094H115.145Z" fill="#070707"/>
<path d="M107.598 16.7266H105.082L104.082 14.125H99.5039L98.5586 16.7266H96.1055L100.566 5.27344H103.012L107.598 16.7266ZM103.34 12.1953L101.762 7.94531L100.215 12.1953H103.34Z" fill="#070707"/>
<path d="M84.3945 16.7266V5.27344H92.2461V7.21094H86.707V9.92188H91.4883V11.8594H86.707V16.7266H84.3945Z" fill="#070707"/>
<path d="M63.4141 11.9609C63.4141 11.2318 63.5938 10.526 63.9531 9.84375C64.3125 9.16146 64.8203 8.64062 65.4766 8.28125C66.138 7.92188 66.875 7.74219 67.6875 7.74219C68.9427 7.74219 69.9714 8.15104 70.7734 8.96875C71.5755 9.78125 71.9766 10.8099 71.9766 12.0547C71.9766 13.3099 71.5703 14.3516 70.7578 15.1797C69.9505 16.0026 68.9323 16.4141 67.7031 16.4141C66.9427 16.4141 66.2161 16.2422 65.5234 15.8984C64.8359 15.5547 64.3125 15.0521 63.9531 14.3906C63.5938 13.724 63.4141 12.9141 63.4141 11.9609ZM65.6641 12.0781C65.6641 12.901 65.8594 13.5312 66.25 13.9688C66.6406 14.4062 67.1224 14.625 67.6953 14.625C68.2682 14.625 68.7474 14.4062 69.1328 13.9688C69.5234 13.5312 69.7188 12.8958 69.7188 12.0625C69.7188 11.25 69.5234 10.625 69.1328 10.1875C68.7474 9.75 68.2682 9.53125 67.6953 9.53125C67.1224 9.53125 66.6406 9.75 66.25 10.1875C65.8594 10.625 65.6641 11.2552 65.6641 12.0781Z" fill="white"/>
<path d="M58.3984 7.92969V9.67969H56.8984V13.0234C56.8984 13.7005 56.9115 14.0964 56.9375 14.2109C56.9688 14.3203 57.0339 14.4115 57.1328 14.4844C57.237 14.5573 57.362 14.5938 57.5078 14.5938C57.7109 14.5938 58.0052 14.5234 58.3906 14.3828L58.5781 16.0859C58.0677 16.3047 57.4896 16.4141 56.8438 16.4141C56.4479 16.4141 56.0911 16.349 55.7734 16.2188C55.4557 16.0833 55.2214 15.9115 55.0703 15.7031C54.9245 15.4896 54.8229 15.2031 54.7656 14.8438C54.7188 14.5885 54.6953 14.0729 54.6953 13.2969V9.67969H53.6875V7.92969H54.6953V6.28125L56.8984 5V7.92969H58.3984Z" fill="white"/>
<path d="M0 9C0 4.02944 4.02944 0 9 0H47V22H0V9Z" fill="#E3FC87"/>
<path d="M33.6016 16.7266V5.27344H37.3125C38.7188 5.27344 39.6354 5.33073 40.0625 5.44531C40.7188 5.61719 41.2682 5.99219 41.7109 6.57031C42.1536 7.14323 42.375 7.88542 42.375 8.79688C42.375 9.5 42.2474 10.0911 41.9922 10.5703C41.737 11.0495 41.4115 11.4271 41.0156 11.7031C40.625 11.974 40.2266 12.1536 39.8203 12.2422C39.2682 12.3516 38.4688 12.4062 37.4219 12.4062H35.9141V16.7266H33.6016ZM35.9141 7.21094V10.4609H37.1797C38.0911 10.4609 38.7005 10.401 39.0078 10.2812C39.3151 10.1615 39.5547 9.97396 39.7266 9.71875C39.9036 9.46354 39.9922 9.16667 39.9922 8.82812C39.9922 8.41146 39.8698 8.06771 39.625 7.79688C39.3802 7.52604 39.0703 7.35677 38.6953 7.28906C38.4193 7.23698 37.8646 7.21094 37.0312 7.21094H35.9141Z" fill="#070707"/>
<path d="M28.3672 16.7266H25.8516L24.8516 14.125H20.2734L19.3281 16.7266H16.875L21.3359 5.27344H23.7812L28.3672 16.7266ZM24.1094 12.1953L22.5312 7.94531L20.9844 12.1953H24.1094Z" fill="#070707"/>
<path d="M8.02344 16.7266V7.21094H4.625V5.27344H13.7266V7.21094H10.3359V16.7266H8.02344Z" fill="#070707"/>
</svg>
