<svg width="100" height="90" viewBox="0 0 100 90" fill="none" xmlns="http://www.w3.org/2000/svg">
<g clip-path="url(#clip0_48_182)">
<path d="M47.154 88.0797C60.8517 83.1359 69.2094 66.9652 70.7184 53.119C71.8249 42.9281 69.746 35.0702 65.915 26.9006C53.4663 0.362145 47.7491 0.0252527 47.7491 0.0252527C47.7491 0.0252527 22.7009 7.21784 8.85234 27.1617C-1.19042 41.6227 -2.65743 60.0253 4.30878 72.7765C12.0965 87.0101 32.0311 93.5373 47.154 88.0797Z" fill="url(#paint0_radial_48_182)"/>
<path opacity="0.4" d="M88.7416 77.2319C95.5653 68.2201 97.3593 55.5867 94.4085 43.5345C91.4661 31.5328 84.4496 22.041 74.3397 15.1011C50.2388 -1.45705 48.294 0.0336839 48.294 0.0336839C48.294 0.0336839 28.812 16.9624 28.1917 43.8714C27.7893 61.4992 34.437 76.6171 46.8689 84.0707C58.3703 90.9601 70.098 88.8798 71.2464 88.5851C78.8833 86.6479 84.6927 82.58 88.7416 77.2319Z" fill="#666666"/>
<path d="M91.5082 77.2319C98.3319 68.2201 101.911 55.612 98.9606 43.5598C96.0182 31.5581 89.27 21.2998 78.2632 13.8714C53.9107 -2.56878 47.3721 0.185294 47.3721 0.185294C47.3721 0.185294 31.5786 16.9624 30.9583 43.8714C30.5559 61.4992 36.1892 77.5856 48.6211 85.0393C60.1225 91.9287 72.8646 88.8714 74.0214 88.5851C81.6583 86.648 87.4676 82.58 91.5082 77.2319Z" fill="url(#paint1_radial_48_182)"/>
</g>
<defs>
<radialGradient id="paint0_radial_48_182" cx="0" cy="0" r="1" gradientUnits="userSpaceOnUse" gradientTransform="translate(28.0492 67.5968) rotate(-180) scale(45.754 45.9686)">
<stop offset="0.16" stop-color="#F7D3A8"/>
<stop offset="0.34" stop-color="#FBCEAA"/>
<stop offset="0.44" stop-color="#FFC7AD"/>
<stop offset="0.51" stop-color="#FFB8A1"/>
<stop offset="0.65" stop-color="#FF9282"/>
<stop offset="0.84" stop-color="#FF5450"/>
<stop offset="0.89" stop-color="#FF4141"/>
<stop offset="0.93" stop-color="#FA4242"/>
<stop offset="0.97" stop-color="#EC4444"/>
<stop offset="0.98" stop-color="#E64545"/>
</radialGradient>
<radialGradient id="paint1_radial_48_182" cx="0" cy="0" r="1" gradientUnits="userSpaceOnUse" gradientTransform="translate(67.4599 60.9362) rotate(-108.081) scale(51.8491 54.7531)">
<stop offset="0.16" stop-color="#F7D3A8"/>
<stop offset="0.34" stop-color="#FBCEAA"/>
<stop offset="0.44" stop-color="#FFC7AD"/>
<stop offset="0.51" stop-color="#FFB8A1"/>
<stop offset="0.65" stop-color="#FF9282"/>
<stop offset="0.84" stop-color="#F16667"/>
<stop offset="0.89" stop-color="#FF4141"/>
<stop offset="0.92" stop-color="#FA4242"/>
<stop offset="0.93" stop-color="#F84242"/>
<stop offset="0.98" stop-color="#E64545"/>
</radialGradient>
<clipPath id="clip0_48_182">
<rect width="100" height="90" fill="white" transform="translate(100 90) rotate(-180)"/>
</clipPath>
</defs>
</svg>
