<svg width="24" height="24" viewBox="0 0 24 24" fill="none" xmlns="http://www.w3.org/2000/svg">
<g clip-path="url(#clip0_6_212)">
<path d="M12 0C5.38307 0 0 5.38307 0 12C0 18.6169 5.38307 24 12 24C18.6169 24 24 18.6169 24 12C24 5.38306 18.6169 0 12 0ZM17.1506 14.4207C17.217 13.6222 17.2534 12.8111 17.2534 12C17.2534 11.1889 17.217 10.3778 17.1506 9.57932C20.1062 10.2228 21.6774 11.3265 21.6774 12C21.6774 12.6735 20.1062 13.7772 17.1506 14.4207ZM12 21.6774C11.3265 21.6774 10.2228 20.1062 9.57932 17.1506C10.3778 17.217 11.1889 17.2534 12 17.2534C12.8111 17.2534 13.6222 17.217 14.4207 17.1506C13.7772 20.1062 12.6735 21.6774 12 21.6774ZM12 14.9308C10.9934 14.9308 10.0688 14.8765 9.2116 14.7884C9.12347 13.9312 9.06918 13.0066 9.06918 12C9.06918 10.9934 9.12348 10.0688 9.2116 9.2116C10.0688 9.12348 10.9934 9.06918 12 9.06918C13.0066 9.06918 13.9312 9.12348 14.7884 9.2116C14.8765 10.0688 14.9308 10.9934 14.9308 12C14.9308 13.0066 14.8765 13.9312 14.7884 14.7884C13.9312 14.8765 13.0066 14.9308 12 14.9308ZM2.32258 12C2.32258 11.3265 3.89384 10.2228 6.84942 9.57932C6.78303 10.3778 6.7466 11.1889 6.7466 12C6.7466 12.8111 6.78303 13.6222 6.84942 14.4207C3.89384 13.7772 2.32258 12.6735 2.32258 12ZM12 2.32258C12.6735 2.32258 13.7772 3.89384 14.4207 6.84942C13.6222 6.78303 12.8111 6.7466 12 6.7466C11.1889 6.7466 10.3778 6.78303 9.57932 6.84942C10.2228 3.89384 11.3265 2.32258 12 2.32258ZM20.976 8.40098C19.8135 7.85147 18.3878 7.44004 16.8366 7.16342C16.56 5.61225 16.1485 4.18648 15.599 3.02401C18.0427 4.00748 19.9925 5.95728 20.976 8.40098ZM8.40098 3.02405C7.85147 4.18653 7.44004 5.61229 7.16342 7.16342C5.61229 7.44004 4.18653 7.85138 3.02405 8.40093C4.00753 5.95723 5.95733 4.00753 8.40098 3.02405ZM3.0241 15.5991C4.18658 16.1486 5.61229 16.56 7.16342 16.8366C7.44004 18.3877 7.85138 19.8134 8.40093 20.9759C5.95733 19.9924 4.00757 18.0427 3.0241 15.5991ZM15.5991 20.9759C16.1486 19.8135 16.56 18.3877 16.8366 16.8366C18.3877 16.56 19.8135 16.1485 20.9759 15.599C19.9925 18.0427 18.0428 19.9925 15.5991 20.9759Z" fill="black"/>
</g>
<defs>
<clipPath id="clip0_6_212">
<rect width="24" height="24" fill="white"/>
</clipPath>
</defs>
</svg>
