<svg width="25" height="24" viewBox="0 0 25 24" fill="none" xmlns="http://www.w3.org/2000/svg">
<path d="M14.6117 19.1348C14.6023 19.0618 14.5886 18.9895 14.5707 18.9181C14.3322 18.0084 14.1066 17.0977 13.846 16.197C13.7959 16.0808 13.7859 15.9512 13.8178 15.8288C13.8496 15.7063 13.9214 15.598 14.0217 15.5209C14.22 15.3225 14.3487 15.0651 14.3885 14.7873C14.4282 14.5095 14.377 14.2263 14.2423 13.9801C14.1198 13.7402 13.9314 13.5402 13.6992 13.4037C13.4671 13.2671 13.2008 13.1997 12.9316 13.2092C12.6564 13.2239 12.3919 13.321 12.1725 13.4881C11.9532 13.6551 11.7892 13.8843 11.7018 14.1459C11.5984 14.4077 11.5829 14.6961 11.6576 14.9676C11.7323 15.239 11.8932 15.4788 12.1161 15.6508C12.183 15.699 12.2312 15.7689 12.2525 15.8486C12.2738 15.9283 12.2669 16.0129 12.2329 16.0881C11.9763 17.0028 11.7417 17.9215 11.4992 18.8412C11.4805 18.9366 11.4668 19.033 11.4582 19.1298H14.6107M13.0135 11.241C13.3719 10.404 13.9356 9.67105 14.6526 9.11005C15.4746 8.50658 16.4824 8.21117 17.4999 8.27541C18.5175 8.33966 19.4801 8.75948 20.2197 9.46155C21.1064 10.3111 21.6993 11.4213 21.9124 12.6308C22.1254 13.8404 21.9476 15.0864 21.4046 16.188C20.7079 17.5347 19.7882 18.7535 18.6845 19.7929C17.0298 21.3917 15.1896 22.7863 13.2032 23.947C13.15 23.9764 13.091 23.9941 13.0304 23.9988C12.9698 24.0034 12.9088 23.9949 12.8518 23.9739C10.4806 22.6064 8.32725 20.8919 6.46309 18.8872C5.41616 17.804 4.63707 16.4908 4.18812 15.0526C3.91557 14.021 3.9396 12.9334 4.25746 11.9148C4.57532 10.8962 5.1741 9.98808 5.98494 9.29479C6.47011 8.87635 7.0423 8.57119 7.66001 8.40143C8.27771 8.23168 8.92545 8.20159 9.55622 8.31336C10.187 8.42512 10.785 8.67593 11.3068 9.04759C11.8287 9.41925 12.2613 9.90245 12.5733 10.4621C12.722 10.7008 12.8528 10.9534 13.0105 11.242M9.49373 2.76208C9.89302 3.14054 10.2823 3.54197 10.7056 3.89247C11.057 4.18505 11.2416 4.1541 11.4762 3.76665C11.8046 3.22142 12.0931 2.65822 12.3746 2.08604C12.4106 2.00915 12.3387 1.84238 12.2668 1.7575C12.17 1.65543 12.0956 1.53433 12.0481 1.40189C12.0007 1.26945 11.9813 1.12858 11.9913 0.988253C12.0012 0.847922 12.0403 0.711201 12.1059 0.58679C12.1716 0.46238 12.2624 0.353005 12.3726 0.265626C12.5685 0.0851379 12.8281 -0.0101048 13.0942 0.000850503C13.3603 0.0118058 13.6112 0.128062 13.7916 0.324043C13.972 0.520025 14.0673 0.779678 14.0563 1.04588C14.0454 1.31209 13.9291 1.56304 13.7332 1.74352C13.6994 1.76719 13.6706 1.79738 13.6486 1.83234C13.6266 1.86729 13.6118 1.9063 13.6051 1.94706C13.5984 1.98782 13.5999 2.02951 13.6096 2.06967C13.6193 2.10983 13.6369 2.14765 13.6613 2.1809C13.9608 2.71215 14.2333 3.26636 14.5528 3.78962C14.7734 4.1501 14.9221 4.15909 15.2735 3.91544C15.4331 3.8061 15.5825 3.68243 15.7197 3.54596C15.9852 3.28034 16.2378 3.00573 16.4943 2.73911C16.0032 2.06806 16.095 1.38304 16.694 1.06349C16.9273 0.939695 17.2 0.912828 17.453 0.988712C17.7059 1.06459 17.9189 1.23712 18.0456 1.46892C18.1112 1.58551 18.1523 1.71426 18.1664 1.84729C18.1805 1.98032 18.1674 2.11483 18.1278 2.24261C18.0882 2.37038 18.0229 2.48873 17.936 2.59041C17.8491 2.69209 17.7424 2.77497 17.6223 2.83397C17.5199 2.87399 17.43 2.94062 17.3619 3.02698C17.2939 3.11334 17.25 3.21632 17.235 3.32528C17.0054 4.27093 16.7529 5.2086 16.5193 6.15425C16.5016 6.27867 16.4364 6.39138 16.3374 6.46867C16.2383 6.54596 16.1132 6.58181 15.9882 6.56866C13.9918 6.564 11.998 6.564 10.0068 6.56866C9.88221 6.58344 9.75677 6.54873 9.65747 6.47199C9.55817 6.39525 9.49292 6.2826 9.47576 6.15825C9.23219 5.19362 8.97165 4.22999 8.73707 3.26237C8.72406 3.17009 8.68615 3.08311 8.6274 3.01079C8.56865 2.93847 8.49129 2.88355 8.40366 2.85195C8.19398 2.75728 8.02342 2.59307 7.92083 2.38709C7.81824 2.18112 7.78992 1.94602 7.84065 1.72156C7.89077 1.5223 7.99962 1.34272 8.15306 1.20614C8.30651 1.06955 8.49747 0.982278 8.70113 0.955645C8.92861 0.922137 9.16062 0.969687 9.3566 1.08998C9.55258 1.21028 9.70005 1.39566 9.77323 1.61371C9.91298 1.9742 9.83612 2.28476 9.48973 2.75409" fill="black"/>
</svg>
