<svg width="24" height="24" viewBox="0 0 24 24" fill="none" xmlns="http://www.w3.org/2000/svg">
<path d="M17.1896 10.0878C18.3064 10.41 19.5319 10.3824 20.419 10.2899C21.0439 10.2249 21.4838 10.8645 21.2354 11.4415C20.2502 13.7318 18.2333 15.1399 15.5137 15.3388C15.2028 16.0619 14.7889 16.7355 14.2841 17.3394C13.7801 17.9424 13.1901 18.4683 12.5343 18.9017C11.8786 19.3343 11.1627 19.6686 10.4112 19.8943C9.65884 20.1183 8.87809 20.2327 8.09247 20.2327L10.5208 12.4941C13.0164 4.53971 14.2963 4.00081 20.2153 4.00081H23.1792C23.7424 4.00081 24.1515 4.56812 23.9462 5.09322C22.9868 7.55397 20.7477 9.39629 17.1896 10.0878ZM8.17687 14.5426C8.14847 14.5434 8.12087 14.5507 8.09328 14.5507C7.11125 14.5507 6.2258 13.9574 5.85003 13.0477C5.47426 12.1379 5.68203 11.0909 6.37676 10.3946C7.07067 9.6982 8.11519 9.48962 9.02255 9.86702C9.22302 9.95061 9.40563 10.0626 9.572 10.1908C10.3714 7.87374 11.1359 6.22052 12.0636 5.05183C11.7804 4.89194 11.4914 4.74342 11.1903 4.61762C10.2083 4.20939 9.15647 4 8.09328 4C4.82012 4 1.86916 5.97704 0.616058 9.00997C-0.636232 12.0429 0.0560583 15.5336 2.37073 17.8547C3.51994 19.0072 4.95809 19.7571 6.48389 20.0671C6.49525 19.9592 6.51148 19.8512 6.54476 19.7457L8.17687 14.5426Z" fill="black"/>
</svg>
