<svg width="24" height="24" viewBox="0 0 24 24" fill="none" xmlns="http://www.w3.org/2000/svg">
<path d="M5.92237 2.0025C6.31312 2.00849 6.59283 2.02585 6.75429 2.0537C6.88814 2.07675 7.10692 2.12315 7.24047 2.15698C7.37432 2.19081 7.60451 2.25967 7.75247 2.30997C7.90042 2.36027 8.19394 2.48631 8.40522 2.58959C8.6165 2.69288 8.91001 2.85784 9.05797 2.95604C9.20592 3.05424 9.43611 3.22638 9.56996 3.33895C9.70381 3.45152 10.1672 3.8976 11.3865 5.11729L11.3868 5.34692L9.53064 7.19681L9.30106 7.19562L8.45654 6.35854C7.89112 5.79839 7.55259 5.48254 7.43255 5.4038C7.33411 5.33914 7.15554 5.24034 7.0358 5.18376C6.91605 5.12747 6.70867 5.05203 6.57512 5.0164C6.44127 4.98077 6.21678 4.94215 6.07603 4.93048C5.93528 4.9188 5.71079 4.9185 5.57694 4.92958C5.44309 4.94066 5.23601 4.97449 5.11627 5.00443C4.99652 5.03466 4.80085 5.10113 4.6811 5.15232C4.56135 5.20352 4.35998 5.31279 4.23303 5.39482C4.10638 5.47685 3.9035 5.64301 3.78196 5.76426C3.66071 5.88521 3.49385 6.0876 3.41162 6.21394C3.32909 6.34028 3.21984 6.54116 3.16822 6.66062C3.1169 6.77977 3.04998 6.97497 3.01967 7.09442C2.98936 7.21358 2.95574 7.42045 2.94434 7.55368C2.93323 7.68691 2.93353 7.91084 2.94524 8.05126C2.95694 8.19167 2.99566 8.41561 3.03167 8.54883C3.06739 8.68206 3.14301 8.88893 3.19944 9.00809C3.25586 9.12724 3.3552 9.30537 3.41972 9.40357C3.50225 9.52901 3.87709 9.92211 5.81973 11.866L10.0429 7.65996C12.3658 5.34662 14.3643 3.37638 14.4837 3.28177C14.6035 3.18716 14.8109 3.03687 14.9444 2.94826C15.0783 2.85934 15.297 2.72881 15.4306 2.65845C15.5644 2.5878 15.8003 2.47852 15.9552 2.41535C16.11 2.35218 16.375 2.26057 16.544 2.21207C16.713 2.16357 17.0008 2.09681 17.1839 2.06418C17.4747 2.01238 17.5986 2.0049 18.1694 2.0049C18.7399 2.0049 18.8639 2.01238 19.155 2.06418C19.3381 2.09681 19.6259 2.16327 19.7948 2.21207C19.9638 2.26057 20.2288 2.35218 20.3837 2.41535C20.5385 2.47852 20.7747 2.5887 20.9083 2.65995C21.0421 2.7312 21.2492 2.85365 21.3689 2.93209C21.4887 3.01053 21.6961 3.16202 21.8296 3.2689C21.9635 3.37578 22.2 3.59433 22.3554 3.7542C22.5109 3.91407 22.7081 4.13681 22.7933 4.24908C22.8785 4.36135 23.0088 4.54517 23.0829 4.65744C23.1567 4.76971 23.302 5.03377 23.4055 5.24423C23.5091 5.4547 23.6396 5.76486 23.6954 5.93311C23.7513 6.10167 23.826 6.37141 23.8614 6.53278C23.8971 6.69415 23.9382 6.92378 23.9529 7.04323C23.9676 7.16238 23.9871 7.40369 23.9958 7.57913C24.0049 7.75966 23.9988 8.05305 23.9814 8.25544C23.9649 8.45183 23.928 8.73325 23.8995 8.88055C23.871 9.02785 23.8191 9.25179 23.7837 9.37813C23.7483 9.50447 23.6783 9.71673 23.6282 9.85025C23.5781 9.98348 23.4878 10.196 23.4271 10.3224C23.3665 10.4487 23.2513 10.661 23.1708 10.7945C23.0904 10.9277 22.9475 11.1403 22.8536 11.2666C22.7597 11.393 22.5727 11.6169 22.438 11.7642C22.3032 11.9115 21.8953 12.3277 20.8696 13.3456L20.6136 13.3459L19.7213 12.4594C19.2129 11.9543 18.8138 11.5373 18.7934 11.49C18.7733 11.443 18.7646 11.3765 18.7739 11.337C18.7847 11.2903 19.0605 10.9942 19.6004 10.4502C20.1301 9.91642 20.456 9.56734 20.5409 9.44219C20.6124 9.33681 20.7114 9.17035 20.7609 9.07215C20.8104 8.97396 20.881 8.79882 20.9179 8.68296C20.9548 8.56709 21.0022 8.3719 21.0235 8.24915C21.0448 8.1264 21.0619 7.9312 21.0619 7.81534C21.0619 7.69948 21.049 7.51596 21.0337 7.40698C21.0184 7.2983 20.977 7.11149 20.9422 6.99233C20.9074 6.87318 20.8386 6.68936 20.7894 6.58397C20.7405 6.47859 20.6388 6.30076 20.564 6.18849C20.489 6.07622 20.3486 5.90348 20.2519 5.80498C20.1553 5.70618 19.9956 5.56487 19.8972 5.49092C19.7988 5.41698 19.6085 5.30082 19.4749 5.23286C19.3411 5.16489 19.134 5.07987 19.0143 5.04424C18.8945 5.00862 18.7219 4.9664 18.6304 4.95054C18.5389 4.93467 18.3258 4.92209 18.1568 4.92269C17.9879 4.92329 17.7577 4.94126 17.6448 4.96281C17.5323 4.98437 17.3537 5.03077 17.2481 5.0661C17.1424 5.10113 16.9813 5.16759 16.8897 5.2134C16.7982 5.2592 16.637 5.35321 16.5314 5.42207C16.3895 5.51487 16.0443 5.84031 14.0732 7.79648L17.1067 10.8203C19.8888 13.5932 20.1403 13.8509 20.1403 13.927C20.1403 13.9725 20.1238 14.0413 20.1037 14.0799C20.0836 14.1186 18.4104 15.7987 16.3859 17.8136C13.6056 20.5802 12.6734 21.4933 12.5768 21.5439C12.5063 21.5807 12.3796 21.6289 12.2953 21.6508C12.211 21.6726 12.0726 21.6903 11.9883 21.69C11.9039 21.6897 11.783 21.6771 11.7194 21.6624C11.6561 21.6478 11.5408 21.6065 11.4634 21.5705C11.3406 21.514 10.6942 20.8799 6.43797 16.6412C3.75165 13.9659 1.46118 11.6678 1.34833 11.5346C1.23549 11.4014 1.07043 11.1831 0.981893 11.0499C0.893059 10.9167 0.770012 10.7155 0.708489 10.6032C0.646965 10.4909 0.552129 10.3014 0.497509 10.1823C0.442888 10.0631 0.359156 9.85055 0.311138 9.71014C0.263119 9.56973 0.196194 9.34579 0.162581 9.21257C0.128668 9.07934 0.0821506 8.86109 0.0593419 8.72786C0.0347326 8.58446 0.012224 8.26681 0.00442104 7.94946C-0.00578284 7.53721 0.000819671 7.33992 0.033232 7.09472C0.0563408 6.91928 0.104959 6.64385 0.141273 6.48218C0.177587 6.32082 0.252615 6.05676 0.308137 5.89539C0.363658 5.73402 0.478301 5.45829 0.562633 5.28285C0.647266 5.10741 0.769412 4.87779 0.834237 4.7724C0.899061 4.66702 1.05092 4.44907 1.17126 4.2877C1.29161 4.12633 1.5287 3.85629 1.69797 3.68744C1.86723 3.51858 2.13823 3.28237 2.29999 3.16232C2.46176 3.04226 2.68084 2.89107 2.78618 2.82641C2.89182 2.76174 3.12201 2.63989 3.29817 2.55546C3.47404 2.47134 3.75045 2.35697 3.91251 2.30159C4.07427 2.2462 4.33927 2.17136 4.50133 2.13483C4.66309 2.0986 4.91669 2.0516 5.06435 2.03094C5.25912 2.0034 5.49501 1.99562 5.92177 2.0022L5.92237 2.0025ZM11.0417 11.2301C10.9574 11.2604 10.7788 11.3415 10.645 11.4106C10.5111 11.4798 10.2989 11.6193 10.1735 11.7205C10.048 11.8217 9.86047 12.0079 9.75723 12.1343C9.63268 12.2866 9.51744 12.4672 9.4157 12.6702C9.32056 12.8603 9.23683 13.0731 9.19542 13.2315C9.1435 13.4291 9.12579 13.5701 9.11589 13.8566C9.10658 14.1317 9.11379 14.2823 9.1441 14.4434C9.16661 14.5626 9.20892 14.735 9.23833 14.826C9.26774 14.9173 9.34157 15.0952 9.4025 15.2215C9.46342 15.3478 9.58166 15.543 9.6654 15.6553C9.74913 15.7676 9.90579 15.9427 10.0138 16.0445C10.1219 16.1463 10.2992 16.2879 10.4085 16.3589C10.5177 16.4301 10.6759 16.5211 10.7605 16.5609C10.8448 16.6008 10.9862 16.6573 11.0741 16.6867C11.1621 16.716 11.3175 16.7576 11.4196 16.7795C11.5216 16.8013 11.7203 16.8259 11.861 16.834C12.0096 16.8427 12.2137 16.8358 12.3472 16.8175C12.4739 16.8005 12.6755 16.7579 12.7953 16.7232C12.915 16.6885 13.105 16.6172 13.2175 16.5648C13.3301 16.5124 13.5144 16.4071 13.6272 16.3307C13.7397 16.2541 13.924 16.0996 14.0369 15.9873C14.1494 15.8751 14.3046 15.6912 14.3814 15.579C14.4582 15.4667 14.5639 15.2829 14.6164 15.1706C14.6689 15.0583 14.74 14.8688 14.7748 14.7497C14.8097 14.6305 14.8523 14.418 14.87 14.2775C14.8883 14.1308 14.8955 13.9249 14.8865 13.7928C14.8781 13.6665 14.8538 13.4827 14.8328 13.3845C14.8118 13.2863 14.7697 13.1312 14.7397 13.0399C14.7094 12.9486 14.6284 12.7651 14.5597 12.6315C14.4906 12.4983 14.3781 12.3145 14.3091 12.2232C14.2403 12.1319 14.099 11.9765 13.9951 11.878C13.8913 11.7792 13.7202 11.6403 13.6146 11.569C13.509 11.4978 13.3649 11.4103 13.2947 11.375C13.2241 11.3397 13.063 11.2741 12.9363 11.2298C12.8097 11.1855 12.608 11.1322 12.4883 11.1119C12.3685 11.0912 12.1323 11.0756 11.9637 11.0765C11.7683 11.0777 11.5726 11.0963 11.4262 11.1268C11.2995 11.1535 11.1267 11.1996 11.0423 11.2298L11.0417 11.2301ZM12.0528 12.1076C12.1725 12.1133 12.3313 12.1334 12.4054 12.1516C12.5096 12.1774 12.5366 12.1938 12.5237 12.2235C12.5144 12.2444 12.4916 12.3019 12.473 12.351C12.4544 12.4001 12.4387 12.489 12.4381 12.5489C12.4375 12.6085 12.4598 12.7178 12.4877 12.7914C12.5156 12.865 12.5714 12.9656 12.6119 13.0147C12.6524 13.0638 12.7476 13.1384 12.8235 13.1806C12.9426 13.2468 12.988 13.2572 13.1536 13.2572C13.3229 13.2572 13.3628 13.2474 13.6398 13.0914L13.6932 13.2126C13.7226 13.2794 13.7704 13.4258 13.7989 13.5381C13.8424 13.7081 13.8487 13.7931 13.8373 14.0485C13.8277 14.2671 13.8076 14.4021 13.7677 14.5206C13.7367 14.612 13.6782 14.7497 13.6374 14.8269C13.5966 14.9042 13.5078 15.0362 13.4402 15.1203C13.3724 15.2044 13.2485 15.3287 13.1647 15.3963C13.081 15.464 12.9201 15.5634 12.8076 15.6176C12.695 15.6715 12.5222 15.7349 12.4237 15.7589C12.2875 15.7915 12.168 15.7993 11.9247 15.7906C11.663 15.7813 11.5675 15.7667 11.4001 15.7098C11.2875 15.6715 11.1146 15.5906 11.0162 15.5299C10.9169 15.4688 10.7515 15.3299 10.645 15.2182C10.5072 15.0736 10.4226 14.9556 10.3458 14.8006C10.2866 14.6817 10.2197 14.5099 10.1966 14.4186C10.1735 14.3272 10.1489 14.1608 10.142 14.0485C10.1342 13.9249 10.1438 13.7641 10.1663 13.6402C10.1867 13.5279 10.2335 13.3614 10.2707 13.2701C10.3079 13.1788 10.3755 13.0414 10.4214 12.9647C10.467 12.8881 10.5855 12.7444 10.6846 12.6459C10.7836 12.5471 10.9277 12.4291 11.0045 12.3836C11.0813 12.3381 11.2194 12.2705 11.3109 12.2333C11.4025 12.1962 11.5579 12.1504 11.6564 12.1319C11.7578 12.1124 11.9298 12.1022 12.0531 12.1082L12.0528 12.1076Z" fill="black"/>
</svg>
