<svg width="25" height="24" viewBox="0 0 25 24" fill="none" xmlns="http://www.w3.org/2000/svg">
<g clip-path="url(#clip0_11_332)">
<path d="M19.6283 0H6.3089C3.37688 0 1 2.37688 1 5.3089V18.6283C1 21.5603 3.37688 23.9372 6.3089 23.9372H19.6283C22.5603 23.9372 24.9372 21.5603 24.9372 18.6283V5.3089C24.9372 2.37688 22.5603 0 19.6283 0Z" fill="black" stroke="black" stroke-width="20"/>
<path fill-rule="evenodd" clip-rule="evenodd" d="M14.5267 10.6304L20.599 3.53717H19.1791L13.8764 9.69424L9.61676 3.53717H8.19687H6.07016H5.84084H4.65027L11.0932 12.9204L4.65027 20.4H6.16126L11.7497 13.8754L16.2293 20.4H16.4806H17.7403H19.7759H20.2566H21.2869L14.5267 10.6304ZM6.86179 4.68063H8.98221L13.0691 10.6304L11.91 11.9749L6.86179 4.68063ZM16.9487 19.2565L12.5634 12.9236L13.7162 11.5759L18.9906 19.2565H16.9487Z" fill="white"/>
</g>
<defs>
<clipPath id="clip0_11_332">
<rect x="0.645752" width="24" height="24" rx="4" fill="white"/>
</clipPath>
</defs>
</svg>
