<svg width="24" height="24" viewBox="0 0 24 24" fill="none" xmlns="http://www.w3.org/2000/svg">
<path d="M9.54463 15.0859V7.91652L15.8173 11.5016L9.54463 15.0859ZM23.4967 5.65967C23.2134 4.61365 22.4132 3.80481 21.3962 3.51859L21.3746 3.51376C18.8196 3.18733 15.8645 3.0008 12.8654 3.0008C12.5605 3.0008 12.2565 3.00241 11.9532 3.00643L11.9996 3.00563C11.7419 3.00241 11.4387 3 11.1338 3C8.1347 3 5.17801 3.18653 2.27573 3.54753L2.62301 3.51215C1.58517 3.80401 0.784983 4.61204 0.507318 5.63715L0.502517 5.65806C0.182443 7.35372 0 9.30505 0 11.299C0 11.3697 3.73808e-08 11.4405 0.000800224 11.5105V11.4992C0.000800224 11.5587 0 11.6294 0 11.7002C0 13.6941 0.183243 15.6447 0.532924 17.5365L0.502517 17.3403C0.785783 18.3864 1.58597 19.1952 2.60301 19.4814L2.62461 19.4862C5.17961 19.8127 8.1347 19.9992 11.1338 19.9992C11.4379 19.9992 11.7419 19.9976 12.046 19.9936L11.9996 19.9944C12.2573 19.9976 12.5613 20 12.8654 20C15.8653 20 18.8212 19.8135 21.7235 19.4525L21.3762 19.4878C22.4148 19.1968 23.215 18.388 23.4935 17.3628L23.4983 17.3419C23.8176 15.6463 24 13.6949 24 11.7018C24 11.6311 24 11.5603 23.9992 11.4904V11.5008C23.9992 11.4413 24 11.3706 24 11.2998C24 9.30586 23.8168 7.35533 23.4671 5.46349L23.4967 5.65967Z" fill="black"/>
</svg>
