<svg width="24" height="24" viewBox="0 0 24 24" fill="none" xmlns="http://www.w3.org/2000/svg">
<path d="M16.9695 8.79692C18.4511 9.8598 20.2661 10.4852 22.2265 10.4852V6.69945C21.8555 6.69953 21.4854 6.66071 21.1225 6.58353V9.56344C19.1623 9.56344 17.3475 8.93806 15.8655 7.87525V15.6008C15.8655 19.4655 12.7436 22.5983 8.89286 22.5983C7.45605 22.5983 6.12059 22.1624 5.01123 21.4148C6.27739 22.714 8.04314 23.52 9.99663 23.52C13.8476 23.52 16.9696 20.3872 16.9696 16.5223V8.79692H16.9695ZM18.3314 4.97758C17.5742 4.1474 17.077 3.07456 16.9695 1.88848V1.40155H15.9233C16.1866 2.90906 17.0848 4.19698 18.3314 4.97758ZM7.44684 18.4491C7.02379 17.8924 6.79517 17.2114 6.7962 16.5113C6.7962 14.7437 8.22411 13.3105 9.98576 13.3105C10.3141 13.3104 10.6404 13.3609 10.9533 13.4605V9.59017C10.5877 9.53988 10.2186 9.51853 9.84976 9.52636V12.5388C9.53665 12.4392 9.21014 12.3886 8.88175 12.3889C7.1201 12.3889 5.69227 13.8219 5.69227 15.5898C5.69227 16.8397 6.40599 17.9219 7.44684 18.4491Z" fill="black"/>
<path d="M15.8654 7.87518C17.3474 8.93798 19.1622 9.56336 21.1224 9.56336V6.58346C20.0283 6.34956 19.0596 5.77573 18.3313 4.97758C17.0847 4.1969 16.1866 2.90898 15.9232 1.40155H13.1751V16.5222C13.1689 18.2849 11.7435 19.7123 9.98558 19.7123C8.94969 19.7123 8.02941 19.2167 7.44657 18.4491C6.4058 17.9219 5.69208 16.8396 5.69208 15.5898C5.69208 13.8222 7.11991 12.389 8.88157 12.389C9.21909 12.389 9.54441 12.4417 9.84957 12.5389V9.52644C6.06646 9.60488 3.02393 12.707 3.02393 16.5223C3.02393 18.4268 3.78159 20.1533 5.01128 21.4148C6.12064 22.1624 7.4561 22.5984 8.89291 22.5984C12.7437 22.5984 15.8655 19.4655 15.8655 15.6008V7.87518H15.8654Z" fill="black"/>
<path d="M21.1225 6.58347V5.77773C20.1358 5.77923 19.1685 5.50192 18.3314 4.97752C19.0724 5.79172 20.0482 6.35313 21.1225 6.58347ZM15.9233 1.40156C15.8982 1.2575 15.8789 1.11248 15.8655 0.966906V0.47998H12.0711V15.6008C12.065 17.3633 10.6396 18.7906 8.88161 18.7906C8.36548 18.7906 7.87817 18.6677 7.44662 18.4492C8.02945 19.2167 8.94973 19.7122 9.98562 19.7122C11.7433 19.7122 13.169 18.285 13.1752 16.5223V1.40156H15.9233ZM9.84978 9.52645V8.66868C9.53273 8.62519 9.21308 8.60336 8.89303 8.60352C5.04188 8.60344 1.92004 11.7364 1.92004 15.6008C1.92004 18.0235 3.14698 20.1587 5.01141 21.4147C3.78171 20.1533 3.02405 18.4266 3.02405 16.5222C3.02405 12.707 6.06651 9.60489 9.84978 9.52645Z" fill="black"/>
</svg>
