<svg width="32" height="32" viewBox="0 0 32 32" fill="none" xmlns="http://www.w3.org/2000/svg">
<path d="M31.3627 13.3461C31.3627 13.3461 24.3221 1.42737 17.3314 0.000921691C16.8864 -0.0898705 16.4427 9.23548 16 9.23548C15.5573 9.23548 15.1116 -0.0898708 14.6667 0.000921691C7.67578 1.42755 0.634076 13.3492 0.634076 13.3492C-0.649095 14.5315 0.145784 16.7559 1.85096 16.7559C2.87075 16.7559 3.69759 17.6261 3.69759 18.7001V30.0559C3.69759 31.1298 4.52502 31.9994 5.54481 31.9994H12.0169V22.047C12.0169 21.4397 12.4839 20.9482 13.0604 20.9482H18.9394C19.5159 20.9482 19.9834 21.4397 19.9834 22.047V32H26.13C27.1504 32 27.9772 31.1304 27.9772 30.0565V18.7007C27.9772 17.6268 28.8041 16.7565 29.8239 16.7565H30.1494C31.8563 16.7553 32.65 14.5265 31.3627 13.3461Z" fill="#AB9DFF"/>
</svg>
